<?xml version="1.0" encoding="utf-8"?>
<!-- Svg Vector Icons : http://www.onlinewebfonts.com/icon -->
<!DOCTYPE svg PUBLIC "-//W3C//DTD SVG 1.1//EN" "http://www.w3.org/Graphics/SVG/1.1/DTD/svg11.dtd">
<svg version="1.1" xmlns="http://www.w3.org/2000/svg" xmlns:xlink="http://www.w3.org/1999/xlink" x="0px" y="0px" viewBox="0 0 256 256" enable-background="new 0 0 256 256" xml:space="preserve">
<metadata> Svg Vector Icons : http://www.onlinewebfonts.com/icon </metadata>
<g><g><g><path fill="#000000" d="M11.6,5.1c-1.4,1.4-1.6,13-1.6,112.4c0,99.4,0.2,111,1.6,112.4c1.3,1.4,6.4,1.6,41.4,1.6l39.9-0.1l41.2-42.7c22.7-23.4,41.3-43,41.5-43.4c0.5-1.6-7.3-4.4-13.8-4.9l-6.6-0.6l-5.5-6.5l-5.4-6.4l-2.4,2.8c-8.6,10.1-8.6,10.1-15.2,10.7c-4,0.3-7.6,1.4-10.6,3.2c-4.6,2.6-4.6,2.6-9.6,1c-3.5-1.2-7.4-1.6-13.4-1.4c-7.3,0.4-8.9,0.8-13.6,3.6c-4.9,3.1-5.5,3.2-9.7,2.2c-10.3-2.6-28.1,0.7-33.1,6.2c-0.9,1-2,1.9-2.4,1.9s-2.6-2.7-5-6.1c-2.3-3.3-4.6-5.7-5-5.2c-0.4,0.4-2,4.5-3.5,9c-1.4,4.6-3.1,8.3-3.6,8.3c-0.5,0-0.9-30.8-0.9-76.8V9.5h90.4h90.4V67v57.4l3-3.4l2.9-3.5l0.1-55.7c0-42.2-0.3-56.1-1.2-57c-0.9-0.9-23.4-1.2-94.8-1.2C23.1,3.5,13,3.7,11.6,5.1z"/><path fill="#000000" d="M69.3,21c-2.4,0.8-4.5,0.9-6.7,0.2c-2.4-0.7-4.3-0.5-7.7,0.8c-2.5,1-5.5,1.4-6.9,1.1c-4.4-1.1-10.6,1.3-12.9,5c-1.1,1.8-3.1,3.6-4.4,3.9c-2.9,0.7-3.4,4-0.8,5.5c1.5,0.8,1.5,1.1,0.3,2.6c-1.3,1.5-1.2,2,0.9,3.6c1.3,1.1,3.3,1.9,4.5,1.9s3.3,0.8,4.6,1.7c1.8,1.3,4.4,1.8,9.5,1.8c3.9,0,7.5,0.3,8,0.6c4.1,2.6,13.1,1.9,16.5-1.2c1.6-1.5,2.9-1.8,5.9-1.3c4.2,0.7,9.8-1.5,10.8-4.1c0.3-0.8,1.8-1.7,3.4-2c1.5-0.3,3.8-1.7,5.1-3.1c2-2.1,2.1-2.8,1.1-4.4c-0.7-1.1-1.2-3.1-1.2-4.5c0-1.8-0.8-2.9-2.7-3.7c-1.6-0.7-3.7-1.9-4.8-2.9c-2.8-2.3-6-2.9-9.8-1.8c-1.9,0.5-4.6,0.5-6.3,0C73.8,20.2,71.5,20.3,69.3,21z"/><path fill="#000000" d="M226.9,99.6c-4.1,4.3-20.7,21.4-36.7,38c-16.1,16.5-40.8,42-55,56.6l-25.9,26.6l5.6,5.5l5.7,5.6l11.1-11.7c6.2-6.4,31.6-32.5,56.4-58C243,105.9,246,102.6,246,99.3c0-3.6-4.2-7.4-8.1-7.4C235.2,91.9,233.3,93.2,226.9,99.6z"/><path fill="#000000" d="M169.7,188c-18,18.5-34.6,35.9-37,38.6l-4.4,4.9h35.5c26.9,0,36-0.3,37.3-1.3c1.6-1.1,1.7-4.3,1.5-38.5l-0.3-37.3L169.7,188z"/><path fill="#000000" d="M102.9,227.6l-2.9,2.9l5.4,5.5l5.4,5.5l3.3-3.2l3.3-3.2l-2.3-2.4c-1.2-1.3-3.8-3.7-5.8-5.3l-3.6-2.8L102.9,227.6z"/><path fill="#000000" d="M95.7,238.2c-0.6,1.6-2.2,5.4-3.7,8.5l-2.5,5.7l2.3-0.9c1.4-0.5,5.2-2.3,8.6-4l6.3-3.2l-4.4-4.4c-2.4-2.4-4.6-4.4-4.9-4.4S96.3,236.7,95.7,238.2z"/></g></g></g>
</svg>