<svg xmlns="http://www.w3.org/2000/svg" viewBox="0 0 1000 866">
            <polygon class="left dark" fill="#ffd400" points="0	0	500	0	500	188	326	188	0	0" />
            <polygon
              class="left light"
              fill="#ffea80"
              points="0	0	326	188	413	339	250	433	0	0"
            />
            <polygon
              class="right light"
              fill="#41d7ff"
              points="500	0	1000	0	674	188	500	188	500	0"
            />
            <polygon
              class="right dark"
              fill="#00c0f3"
              points="674	188	1000	0	750	433	587	339	674	188"
            />
            <polygon
              class="bottom light"
              fill="#c2dd76"
              points="250	433	413	339	500	490	500	866	250	433"
            />
            <polygon
              class="bottom dark"
              fill="#a6ce39"
              points="500	490	587	339	750	433	500	866	500	490"
            />
          </svg>